<svg width="68" height="68" viewBox="0 0 68 68" fill="none" xmlns="http://www.w3.org/2000/svg">
<rect width="68" height="68" rx="13" fill="#006380"/>
<path d="M23.8726 37.0112C23.4434 37.0112 23.0238 37.1359 22.6669 37.3694C22.31 37.6029 22.0318 37.9347 21.8676 38.323C21.7033 38.7113 21.6604 39.1386 21.7441 39.5508C21.8278 39.963 22.0345 40.3417 22.338 40.6388C22.6415 40.936 23.0282 41.1384 23.4492 41.2204C23.8702 41.3024 24.3066 41.2603 24.7031 41.0995C25.0997 40.9386 25.4386 40.6663 25.6771 40.3168C25.9155 39.9674 26.0428 39.5565 26.0428 39.1362C26.0428 38.5726 25.8142 38.0321 25.4072 37.6336C25.0002 37.2351 24.4482 37.0112 23.8726 37.0112ZM23.8726 40.1987C23.658 40.1987 23.4482 40.1364 23.2698 40.0197C23.0913 39.9029 22.9522 39.737 22.8701 39.5428C22.788 39.3487 22.7665 39.1351 22.8084 38.929C22.8502 38.7228 22.9536 38.5335 23.1053 38.3849C23.2571 38.2363 23.4504 38.1351 23.6609 38.0941C23.8714 38.0532 24.0896 38.0742 24.2879 38.1546C24.4861 38.235 24.6556 38.3712 24.7748 38.5459C24.8941 38.7207 24.9577 38.9261 24.9577 39.1362C24.9577 39.418 24.8434 39.6883 24.6399 39.8875C24.4364 40.0868 24.1604 40.1987 23.8726 40.1987Z" fill="white"/>
<path d="M45.5745 37.0112C45.1453 37.0112 44.7257 37.1359 44.3688 37.3694C44.0119 37.6029 43.7338 37.9347 43.5695 38.323C43.4052 38.7113 43.3623 39.1386 43.446 39.5508C43.5297 39.963 43.7364 40.3417 44.0399 40.6388C44.3434 40.936 44.7301 41.1384 45.1511 41.2204C45.5721 41.3024 46.0085 41.2603 46.405 41.0995C46.8016 40.9386 47.1405 40.6663 47.379 40.3168C47.6174 39.9674 47.7447 39.5565 47.7447 39.1362C47.7447 38.5726 47.5161 38.0321 47.1091 37.6336C46.7021 37.2351 46.1501 37.0112 45.5745 37.0112ZM45.5745 40.1987C45.3599 40.1987 45.1501 40.1364 44.9717 40.0197C44.7932 39.9029 44.6541 39.737 44.572 39.5428C44.4899 39.3487 44.4684 39.1351 44.5103 38.929C44.5521 38.7228 44.6555 38.5335 44.8072 38.3849C44.959 38.2363 45.1523 38.1351 45.3628 38.0941C45.5733 38.0532 45.7915 38.0742 45.9898 38.1546C46.188 38.235 46.3575 38.3712 46.4767 38.5459C46.596 38.7207 46.6596 38.9261 46.6596 39.1362C46.6596 39.418 46.5453 39.6883 46.3418 39.8875C46.1383 40.0868 45.8623 40.1987 45.5745 40.1987Z" fill="white"/>
<path d="M29.8406 39.667H39.6065V40.7295H29.8406V39.667Z" fill="white"/>
<path d="M29.8406 37.542H39.6065V38.6045H29.8406V37.542Z" fill="white"/>
<path d="M33.0959 29.5737H36.3513V30.6362H33.0959V29.5737Z" fill="white"/>
<path d="M51.0002 34.3545V33.292C50.9989 32.8697 50.827 32.465 50.5221 32.1664C50.2171 31.8678 49.8038 31.6995 49.3726 31.6982H47.224L46.101 27.8414L45.7646 26.5292C45.6763 26.1846 45.473 25.8788 45.187 25.6604C44.9009 25.4419 44.5485 25.3232 44.1857 25.3232H39.6066V23.1982C39.6057 22.9167 39.4911 22.6469 39.2878 22.4479C39.0845 22.2488 38.809 22.1366 38.5215 22.1357H30.9257C30.6382 22.1366 30.3627 22.2488 30.1594 22.4479C29.9561 22.6469 29.8415 22.9167 29.8406 23.1982V25.3232H25.2615C24.8987 25.3232 24.5463 25.4419 24.2603 25.6604C23.9742 25.8788 23.7709 26.1846 23.6827 26.5292L23.3517 27.8361L22.2232 31.6982H20.0747C19.6434 31.6995 19.2301 31.8678 18.9252 32.1664C18.6202 32.465 18.4483 32.8697 18.447 33.292V34.3545C18.4479 34.6236 18.5186 34.8881 18.6524 35.1232C18.7862 35.3583 18.9787 35.5563 19.212 35.6986C18.7216 36.192 18.4471 36.8534 18.447 37.542V43.917C18.4478 44.1399 18.4965 44.3601 18.59 44.5633C18.6834 44.7665 18.8196 44.9481 18.9896 45.0964V47.1045C18.9909 47.5268 19.1628 47.9314 19.4677 48.2301C19.7727 48.5287 20.1859 48.697 20.6172 48.6982H24.9577C25.3889 48.697 25.8022 48.5287 26.1072 48.2301C26.4121 47.9314 26.584 47.5268 26.5853 47.1045V45.5107H42.8619V47.1045C42.8632 47.5268 43.0351 47.9314 43.3401 48.2301C43.645 48.5287 44.0583 48.697 44.4896 48.6982H48.83C49.2613 48.697 49.6745 48.5287 49.9795 48.2301C50.2845 47.9314 50.4564 47.5268 50.4577 47.1045V45.0964C50.6276 44.9481 50.7638 44.7665 50.8573 44.5633C50.9508 44.3601 50.9995 44.1399 51.0002 43.917V37.542C51.0001 36.8534 50.7257 36.192 50.2352 35.6986C50.4685 35.5563 50.6611 35.3583 50.7949 35.1232C50.9287 34.8881 50.9993 34.6236 51.0002 34.3545ZM30.9257 23.1982H38.5215V25.3232H30.9257V23.1982ZM24.7352 26.7895C24.7643 26.6743 24.8319 26.572 24.9273 26.4988C25.0227 26.4256 25.1403 26.3858 25.2615 26.3857H44.1857C44.3069 26.3858 44.4246 26.4256 44.5199 26.4988C44.6153 26.572 44.6829 26.6743 44.712 26.7895L44.8802 27.4482H24.567L24.7352 26.7895ZM24.2795 28.5107H45.1678L47.0233 34.8857H31.4195C31.292 34.1433 30.8999 33.4692 30.3129 32.983C29.7258 32.4968 28.9818 32.23 28.213 32.23C27.4441 32.23 26.7001 32.4968 26.1131 32.983C25.5261 33.4692 25.134 34.1433 25.0065 34.8857H22.4239L24.2795 28.5107ZM30.3072 34.8857H26.1187C26.2372 34.4299 26.5074 34.0257 26.8866 33.737C27.2659 33.4483 27.7326 33.2916 28.213 33.2916C28.6934 33.2916 29.1601 33.4483 29.5393 33.737C29.9186 34.0257 30.1888 34.4299 30.3072 34.8857ZM19.5321 33.292C19.5321 33.1511 19.5893 33.016 19.691 32.9163C19.7928 32.8167 19.9308 32.7607 20.0747 32.7607H21.9139L21.2954 34.8857H20.0747C19.9308 34.8857 19.7928 34.8298 19.691 34.7301C19.5893 34.6305 19.5321 34.4954 19.5321 34.3545V33.292ZM25.5002 47.1045C25.5002 47.2454 25.4431 47.3805 25.3413 47.4801C25.2396 47.5798 25.1016 47.6357 24.9577 47.6357H20.6172C20.4733 47.6357 20.3353 47.5798 20.2336 47.4801C20.1318 47.3805 20.0747 47.2454 20.0747 47.1045V45.5107H25.5002V47.1045ZM49.3726 47.1045C49.3726 47.2454 49.3154 47.3805 49.2136 47.4801C49.1119 47.5798 48.9739 47.6357 48.83 47.6357H44.4896C44.3457 47.6357 44.2077 47.5798 44.1059 47.4801C44.0042 47.3805 43.947 47.2454 43.947 47.1045V45.5107H49.3726V47.1045ZM49.9151 43.917C49.9151 44.0579 49.8579 44.193 49.7562 44.2926C49.6544 44.3923 49.5164 44.4482 49.3726 44.4482H20.0747C19.9308 44.4482 19.7928 44.3923 19.691 44.2926C19.5893 44.193 19.5321 44.0579 19.5321 43.917V43.3857H49.9151V43.917ZM49.9151 42.3232H19.5321V37.542C19.5334 37.1197 19.7053 36.715 20.0103 36.4164C20.3152 36.1178 20.7285 35.9495 21.1598 35.9482H48.2874C48.7187 35.9495 49.132 36.1178 49.437 36.4164C49.7419 36.715 49.9138 37.1197 49.9151 37.542V42.3232ZM49.9151 34.3545C49.9151 34.4954 49.8579 34.6305 49.7562 34.7301C49.6544 34.8298 49.5164 34.8857 49.3726 34.8857H48.1518L47.5333 32.7607H49.3726C49.5164 32.7607 49.6544 32.8167 49.7562 32.9163C49.8579 33.016 49.9151 33.1511 49.9151 33.292V34.3545Z" fill="white"/>
</svg>
