<svg width="68" height="68" viewBox="0 0 68 68" fill="none" xmlns="http://www.w3.org/2000/svg">
<rect width="68" height="68" rx="13" fill="#F0BB1F"/>
<path d="M19.5966 24.7573C19.1675 24.7573 18.8164 24.4135 18.8086 23.9934V19.1885C18.8086 18.7607 19.1597 18.417 19.5966 18.417H24.5037C24.9328 18.417 25.2838 18.7607 25.2838 19.1885V20.8614H44.1633V19.1885C44.1633 18.7684 44.5143 18.4246 44.9434 18.417H49.8505C50.2796 18.417 50.6306 18.7607 50.6384 19.1885V23.9934C50.6384 24.4135 50.2874 24.7573 49.8505 24.7573H48.142V43.2434H49.8505C50.2796 43.2434 50.6306 43.5871 50.6384 44.0073V48.8121C50.6384 49.2323 50.2874 49.576 49.8505 49.5837H44.9434C44.5143 49.5837 44.1633 49.2399 44.1633 48.8121V47.1392H25.2838V48.8121C25.2838 49.2323 24.9328 49.576 24.5037 49.5837H19.5966C19.1675 49.5837 18.8164 49.2399 18.8086 48.8121V44.0073C18.8086 43.5871 19.1597 43.2434 19.5966 43.2434H21.3051V24.7573H19.5966ZM49.0781 23.2295V19.9448H45.7235V23.2295H49.0781ZM45.7235 48.0559H49.0781V44.7712H45.7235V48.0559ZM25.2838 44.0073V45.6114H44.1633V44.0073C44.1633 43.5871 44.5143 43.2434 44.9434 43.2434H46.5817V24.7573H44.9434C44.5143 24.7573 44.1633 24.4135 44.1633 23.9934V22.3892H25.2838V23.9934C25.2838 24.4135 24.9328 24.7573 24.5037 24.7573H22.8654V43.2434H24.5037C24.9328 43.2434 25.2838 43.5871 25.2838 44.0073ZM20.3689 44.7712V48.0559H23.7235V44.7712H20.3689ZM23.7235 23.2295V19.9448H20.3689V23.2295H23.7235Z" fill="white"/>
</svg>
