<svg width="100" height="100" viewBox="0 0 100 100" fill="none" xmlns="http://www.w3.org/2000/svg">
<g clip-path="url(#clip0_251_52)">
<path d="M97.225 49.8335C94.2541 46.8085 93.5916 42.2126 95.5875 38.471C97.0125 35.8043 97.1125 32.6334 95.8541 29.8793C94.6 27.1293 92.1333 25.1209 89.1833 24.4543C85.0541 23.5168 82.0083 20.0084 81.6708 15.7834C81.425 12.7709 79.7916 10.0418 77.2458 8.40845C74.7083 6.77095 71.55 6.41678 68.7041 7.45428C64.7208 8.90011 60.2625 7.58761 57.6958 4.22095C55.8625 1.82095 53.0125 0.408447 49.9875 0.408447C46.9666 0.408447 44.1166 1.82095 42.2833 4.22095C39.7291 7.59178 35.2708 8.90428 31.2875 7.45845C28.4458 6.42511 25.2875 6.77928 22.7458 8.41261C20.2041 10.0459 18.5666 12.7751 18.325 15.7876C17.9833 20.0126 14.9416 23.5251 10.8125 24.4584C7.86248 25.1251 5.39581 27.1334 4.14164 29.8834C2.88748 32.6334 2.98748 35.8085 4.41248 38.471C6.40831 42.2085 5.74581 46.8085 2.77914 49.8335C0.658311 51.9876 -0.333356 55.0085 0.0958107 58.0001C0.524977 60.9918 2.32914 63.6126 4.97081 65.0835C8.67081 67.146 10.6041 71.3751 9.73748 75.521C9.12498 78.4793 9.92081 81.5543 11.9 83.8376C13.8833 86.1251 16.8166 87.3543 19.825 87.1626C24.0583 86.9001 27.9625 89.4126 29.4791 93.3668C30.5583 96.1918 32.8958 98.346 35.8 99.196C38.6958 100.046 41.8291 99.496 44.2625 97.7085C47.675 95.196 52.3291 95.196 55.7375 97.7085C58.1708 99.5001 61.3041 100.05 64.2 99.196C67.1042 98.346 69.4416 96.1876 70.525 93.3668C72.0375 89.4126 75.9458 86.896 80.175 87.1626C83.1916 87.3543 86.1208 86.1251 88.1 83.8376C90.0791 81.5543 90.8791 78.4793 90.2625 75.521C89.4 71.3751 91.3292 67.146 95.0333 65.0835C97.6708 63.6085 99.4708 60.9918 99.9041 58.0001C100.337 55.0085 99.3416 51.9876 97.225 49.8335V49.8335ZM44.7916 72.4585L26.0416 54.2751L33.7791 46.5376L44.7916 56.9793L68.3041 32.8793L76.0416 40.6168L44.7916 72.4585Z" fill="#00A651"/>
</g>
<defs>
<clipPath id="clip0_251_52">
<rect width="100" height="100" fill="white"/>
</clipPath>
</defs>
</svg>
