<svg width="42" height="43" viewBox="0 0 42 43" fill="none" xmlns="http://www.w3.org/2000/svg">
<path d="M39.375 3.93383L28.8658 3.93387V1.31745C28.8658 0.59212 28.2785 0.00463867 27.5533 0.00463867C26.8282 0.00463867 26.2408 0.59212 26.2408 1.31745V3.93322H15.7408V1.31745C15.7408 0.59212 15.1535 0.00463867 14.4283 0.00463867C13.7032 0.00463867 13.1158 0.59212 13.1158 1.31745V3.93322H2.625C1.17534 3.93322 0 5.10883 0 6.55883V39.379C0 40.829 1.17534 42.0046 2.625 42.0046H39.375C40.8247 42.0046 42 40.829 42 39.379V6.55883C42 5.10945 40.8247 3.93383 39.375 3.93383ZM39.375 39.379H2.625V6.55883H13.1158V7.88148C13.1158 8.60677 13.7032 9.19429 14.4283 9.19429C15.1535 9.19429 15.7408 8.60677 15.7408 7.88148V6.55949H26.2408V7.88214C26.2408 8.60747 26.8282 9.19495 27.5533 9.19495C28.2785 9.19495 28.8658 8.60747 28.8658 7.88214V6.55949H39.375V39.379ZM30.1875 21.0003H32.8125C33.537 21.0003 34.125 20.4122 34.125 19.6875V17.0619C34.125 16.3372 33.537 15.7491 32.8125 15.7491H30.1875C29.463 15.7491 28.875 16.3372 28.875 17.0619V19.6875C28.875 20.4122 29.463 21.0003 30.1875 21.0003ZM30.1875 31.5021H32.8125C33.537 31.5021 34.125 30.9147 34.125 30.1893V27.5637C34.125 26.839 33.537 26.2509 32.8125 26.2509H30.1875C29.463 26.2509 28.875 26.839 28.875 27.5637V30.1893C28.875 30.9153 29.463 31.5021 30.1875 31.5021ZM22.3125 26.2509H19.6875C18.963 26.2509 18.375 26.839 18.375 27.5637V30.1893C18.375 30.9147 18.963 31.5021 19.6875 31.5021H22.3125C23.037 31.5021 23.625 30.9147 23.625 30.1893V27.5637C23.625 26.8397 23.037 26.2509 22.3125 26.2509ZM22.3125 15.7491H19.6875C18.963 15.7491 18.375 16.3372 18.375 17.0619V19.6875C18.375 20.4122 18.963 21.0003 19.6875 21.0003H22.3125C23.037 21.0003 23.625 20.4122 23.625 19.6875V17.0619C23.625 16.3366 23.037 15.7491 22.3125 15.7491ZM11.8125 15.7491H9.1875C8.463 15.7491 7.875 16.3372 7.875 17.0619V19.6875C7.875 20.4122 8.463 21.0003 9.1875 21.0003H11.8125C12.537 21.0003 13.125 20.4122 13.125 19.6875V17.0619C13.125 16.3366 12.537 15.7491 11.8125 15.7491ZM11.8125 26.2509H9.1875C8.463 26.2509 7.875 26.839 7.875 27.5637V30.1893C7.875 30.9147 8.463 31.5021 9.1875 31.5021H11.8125C12.537 31.5021 13.125 30.9147 13.125 30.1893V27.5637C13.125 26.8397 12.537 26.2509 11.8125 26.2509Z" fill="#005F15"/>
</svg>
