<svg width="43" height="42" viewBox="0 0 43 42" fill="none" xmlns="http://www.w3.org/2000/svg">
<path d="M41.9375 37.7045H4.3125V0.477273C4.3125 0.214773 4.11562 0 3.875 0H0.8125C0.571875 0 0.375 0.214773 0.375 0.477273V41.5227C0.375 41.7852 0.571875 42 0.8125 42H41.9375C42.1781 42 42.375 41.7852 42.375 41.5227V38.1818C42.375 37.9193 42.1781 37.7045 41.9375 37.7045ZM9.125 32.9318H12.1875C12.4281 32.9318 12.625 32.717 12.625 32.4545V23.8636C12.625 23.6011 12.4281 23.3864 12.1875 23.3864H9.125C8.88437 23.3864 8.6875 23.6011 8.6875 23.8636V32.4545C8.6875 32.717 8.88437 32.9318 9.125 32.9318ZM17.4375 32.9318H20.5C20.7406 32.9318 20.9375 32.717 20.9375 32.4545V13.3636C20.9375 13.1011 20.7406 12.8864 20.5 12.8864H17.4375C17.1969 12.8864 17 13.1011 17 13.3636V32.4545C17 32.717 17.1969 32.9318 17.4375 32.9318ZM25.75 32.9318H28.8125C29.0531 32.9318 29.25 32.717 29.25 32.4545V18.017C29.25 17.7545 29.0531 17.5398 28.8125 17.5398H25.75C25.5094 17.5398 25.3125 17.7545 25.3125 18.017V32.4545C25.3125 32.717 25.5094 32.9318 25.75 32.9318ZM34.0625 32.9318H37.125C37.3656 32.9318 37.5625 32.717 37.5625 32.4545V8.59091C37.5625 8.32841 37.3656 8.11364 37.125 8.11364H34.0625C33.8219 8.11364 33.625 8.32841 33.625 8.59091V32.4545C33.625 32.717 33.8219 32.9318 34.0625 32.9318Z" fill="#005F15"/>
</svg>
