<svg width="42" height="42" viewBox="0 0 42 42" fill="none" xmlns="http://www.w3.org/2000/svg">
<path d="M3.71 23.6705C5.0085 32.0373 12.2885 38.493 21.0017 38.493C30.625 38.493 38.4982 30.6198 38.4982 20.9965C38.4982 11.3733 30.6267 3.5 21.0035 3.5C15.232 3.5 10.1535 6.30175 7 10.5V3.50175L3.50525 3.5L3.5 15.75H15.75V12.25L10.1517 12.2483C12.6 9.10175 16.6285 7 21.0035 7C28.7 7 35 13.3 35 20.9965C35 28.693 28.7 34.9947 21.0017 34.9947C14.2153 34.9947 8.52075 30.1052 7.266 23.6705H3.71Z" fill="#005F15"/>
<path d="M19.2534 12.2483V21.5268L24.8552 29.0465L27.6552 26.9518L22.7534 20.475V12.2483H19.2534Z" fill="#005F15"/>
</svg>
