<svg width="42" height="42" viewBox="0 0 42 42" fill="none" xmlns="http://www.w3.org/2000/svg">
<path d="M20.9999 31.5L13.0068 20.2125C11.6984 18.6678 10.8559 16.7831 10.5773 14.7781C10.2986 12.773 10.5954 10.7301 11.433 8.88714C12.2705 7.04422 13.6144 5.47717 15.3082 4.36851C17.0019 3.25985 18.9758 2.65521 20.9999 2.625C23.8057 2.65273 26.4861 3.79128 28.4542 5.79129C30.4222 7.79131 31.5174 10.4898 31.4999 13.2956C31.501 15.7434 30.6677 18.1183 29.1374 20.0287L20.9999 31.5ZM20.9999 5.25C18.8892 5.27424 16.8744 6.13512 15.3979 7.64361C13.9214 9.15211 13.1039 11.1849 13.1249 13.2956C13.1337 15.2221 13.8268 17.0828 15.0805 18.5456L20.9999 26.9325L27.0768 18.375C28.2319 16.9331 28.8656 15.1431 28.8749 13.2956C28.8959 11.1849 28.0784 9.15211 26.6019 7.64361C25.1254 6.13512 23.1106 5.27424 20.9999 5.25Z" fill="#005F15"/>
<path d="M21 14.4375C22.4497 14.4375 23.625 13.2622 23.625 11.8125C23.625 10.3628 22.4497 9.1875 21 9.1875C19.5503 9.1875 18.375 10.3628 18.375 11.8125C18.375 13.2622 19.5503 14.4375 21 14.4375Z" fill="#005F15"/>
<path d="M36.75 15.75H34.125V18.375H36.75V36.75H5.25V18.375H7.875V15.75H5.25C4.55381 15.75 3.88613 16.0266 3.39384 16.5188C2.90156 17.0111 2.625 17.6788 2.625 18.375V36.75C2.625 37.4462 2.90156 38.1139 3.39384 38.6062C3.88613 39.0984 4.55381 39.375 5.25 39.375H36.75C37.4462 39.375 38.1139 39.0984 38.6062 38.6062C39.0984 38.1139 39.375 37.4462 39.375 36.75V18.375C39.375 17.6788 39.0984 17.0111 38.6062 16.5188C38.1139 16.0266 37.4462 15.75 36.75 15.75Z" fill="#005F15"/>
</svg>
