<svg width="68" height="68" viewBox="0 0 68 68" fill="none" xmlns="http://www.w3.org/2000/svg">
<rect width="68" height="68" rx="13" fill="#F15A2B"/>
<path d="M47.4821 45.232C46.8308 45.245 46.1911 45.0625 45.6488 44.7091C45.2452 44.4509 44.7735 44.3133 44.2913 44.3133C43.8092 44.3133 43.3374 44.4509 42.9338 44.7091C42.386 45.0506 41.7501 45.232 41.1007 45.232C40.4514 45.232 39.8155 45.0506 39.2677 44.7091C38.8641 44.4506 38.3922 44.3129 37.9099 44.3129C37.4277 44.3129 36.9558 44.4506 36.5522 44.7091C36.0044 45.0506 35.3685 45.232 34.7191 45.232C34.0698 45.232 33.4339 45.0506 32.8861 44.7091C32.4827 44.4508 32.0112 44.3132 31.5293 44.3132C31.0473 44.3132 30.5758 44.4508 30.1725 44.7091C29.6758 45.0323 29.0962 45.2119 28.5001 45.2274L28.4673 44.3085C28.9076 44.2982 29.3352 44.1618 29.6972 43.9161C30.2448 43.5747 30.8805 43.3933 31.5298 43.3933C32.179 43.3933 32.8147 43.5747 33.3623 43.9161C33.7659 44.1744 34.2377 44.312 34.7198 44.312C35.202 44.312 35.6738 44.1744 36.0773 43.9161C36.6252 43.5743 37.2613 43.3928 37.9109 43.3928C38.5605 43.3928 39.1966 43.5743 39.7444 43.9161C40.148 44.1744 40.6197 44.312 41.1019 44.312C41.5841 44.312 42.0558 44.1744 42.4594 43.9161C43.0072 43.5747 43.6431 43.3934 44.2925 43.3934C44.9418 43.3934 45.5777 43.5747 46.1255 43.9161C46.5301 44.175 47.003 44.3129 47.4863 44.3129C47.9697 44.3129 48.4425 44.175 48.8471 43.9161C49.3888 43.5637 50.0274 43.3816 50.6776 43.3941V44.313C50.1935 44.3001 49.7178 44.4387 49.3196 44.7086C48.776 45.0626 48.1348 45.2452 47.4821 45.232Z" fill="white"/>
<path d="M21.9603 45.2322C21.3092 45.2454 20.6695 45.0629 20.1275 44.7093C19.7294 44.4391 19.2537 44.3003 18.7695 44.3133V43.3943C19.4208 43.3811 20.0607 43.5636 20.6028 43.9172C21.0007 44.1875 21.4763 44.3262 21.9603 44.3133C22.4446 44.3263 22.9204 44.1873 23.3183 43.9167C23.8593 43.5633 24.4981 43.381 25.1483 43.3943C25.7828 43.3804 26.4068 43.5545 26.9384 43.8938L26.465 44.6868C26.0766 44.4309 25.6162 44.3003 25.1483 44.3133C24.6661 44.3005 24.1922 44.439 23.796 44.7084C23.2533 45.063 22.6126 45.2458 21.9603 45.2322Z" fill="white"/>
<path d="M47.4834 42.0155C46.8317 42.0286 46.1915 41.8461 45.6487 41.4927C45.2448 41.2342 44.7726 41.0965 44.2901 41.0965C43.8075 41.0965 43.3354 41.2342 42.9314 41.4927C42.3837 41.8341 41.7478 42.0154 41.0986 42.0154C40.4493 42.0154 39.8135 41.8341 39.2657 41.4927C38.8623 41.2344 38.3907 41.0968 37.9087 41.0968C37.4267 41.0968 36.9551 41.2344 36.5517 41.4927C36.004 41.8342 35.3681 42.0156 34.7188 42.0156C34.0695 42.0156 33.4337 41.8342 32.886 41.4927C32.4826 41.2344 32.011 41.0968 31.529 41.0968C31.0469 41.0968 30.5754 41.2344 30.1719 41.4927C29.6299 41.8463 28.9903 42.0288 28.3391 42.0155C27.688 42.0288 27.0483 41.8463 26.5063 41.4927C26.1086 41.2225 25.6331 41.0837 25.1493 41.0966C24.6655 41.0838 24.1902 41.2225 23.7927 41.4927C23.2515 41.8459 22.6129 42.0284 21.9627 42.0155C21.3114 42.0288 20.6716 41.8463 20.1294 41.4927C19.7309 41.2219 19.2544 41.0831 18.7695 41.0966V40.1777C19.4207 40.1645 20.0603 40.347 20.6024 40.7006C21.0004 40.9708 21.4762 41.1095 21.9603 41.0966C22.4441 41.1095 22.9193 40.9707 23.3169 40.7006C23.858 40.3474 24.4967 40.1649 25.1469 40.1777C25.7986 40.1642 26.4388 40.3466 26.9811 40.7006C27.379 40.9709 27.8546 41.1096 28.3386 41.0966C28.8227 41.1096 29.2983 40.9709 29.6961 40.7006C30.2438 40.359 30.8797 40.1776 31.529 40.1776C32.1783 40.1776 32.8141 40.359 33.3618 40.7006C33.7653 40.9589 34.237 41.0965 34.7191 41.0965C35.2012 41.0965 35.6728 40.9589 36.0763 40.7006C36.624 40.359 37.2598 40.1776 37.9092 40.1776C38.5585 40.1776 39.1943 40.359 39.742 40.7006C40.1455 40.9589 40.6172 41.0965 41.0993 41.0965C41.5814 41.0965 42.053 40.9589 42.4565 40.7006C43.0048 40.3592 43.641 40.1778 44.2908 40.1778C44.9405 40.1778 45.5768 40.3592 46.125 40.7006C46.5292 40.9589 47.0015 41.0964 47.4841 41.0964C47.9668 41.0964 48.4391 40.9589 48.8433 40.7006C49.3859 40.3472 50.026 40.1648 50.6775 40.1777V41.0966C50.1924 41.0832 49.7156 41.222 49.3167 41.4927C48.7744 41.8458 48.1347 42.0283 47.4834 42.0155Z" fill="white"/>
<path d="M47.4821 38.8001C46.8309 38.8131 46.1911 38.6306 45.6488 38.2772C45.2508 38.007 44.775 37.8682 44.2909 37.8811C43.9356 37.8692 43.5827 37.9434 43.2637 38.0971L42.8499 37.2701C43.2978 37.0551 43.7921 36.949 44.2909 36.9609C44.9429 36.9478 45.5834 37.1308 46.1261 37.4851C46.5306 37.7441 47.0035 37.882 47.4868 37.882C47.9702 37.882 48.4431 37.7441 48.8476 37.4851C49.389 37.1324 50.0275 36.95 50.6776 36.9622V37.8811C50.1935 37.8682 49.7178 38.0068 49.3197 38.2767C48.7761 38.6307 48.1348 38.8133 47.4821 38.8001Z" fill="white"/>
<path d="M41.0957 38.7997C40.4455 38.8131 39.8067 38.6307 39.2657 38.2773C38.8621 38.0188 38.3903 37.8811 37.908 37.8811C37.4257 37.8811 36.9539 38.0188 36.5503 38.2773C36.0025 38.6188 35.3666 38.8002 34.7172 38.8002C34.0678 38.8002 33.4319 38.6188 32.8841 38.2773C32.4805 38.019 32.0088 37.8814 31.5266 37.8814C31.0444 37.8814 30.5727 38.019 30.1691 38.2773C29.6272 38.6303 28.988 38.8126 28.3372 38.7997C27.6861 38.8129 27.0464 38.6304 26.5044 38.2768C26.1064 38.0066 25.6306 37.8679 25.1464 37.8808C24.6642 37.8681 24.1904 38.0065 23.7941 38.2759C23.252 38.6301 22.6119 38.8129 21.9603 38.7997C21.3092 38.8129 20.6695 38.6304 20.1275 38.2768C19.7294 38.0066 19.2537 37.8679 18.7695 37.8808V36.9619C19.4208 36.9486 20.0607 37.1311 20.6028 37.4847C21.0007 37.755 21.4763 37.8938 21.9603 37.8808C22.4446 37.8938 22.9204 37.7549 23.3183 37.4843C23.8593 37.1308 24.4981 36.9485 25.1483 36.9619C25.7995 36.9487 26.4391 37.1312 26.9811 37.4847C27.379 37.755 27.8546 37.8938 28.3386 37.8808C28.8228 37.8937 29.2986 37.7549 29.6966 37.4847C30.2444 37.1432 30.8803 36.9619 31.5297 36.9619C32.1791 36.9619 32.815 37.1432 33.3627 37.4847C33.7663 37.7431 34.2381 37.8807 34.7202 37.8807C35.2024 37.8807 35.6742 37.7431 36.0777 37.4847C36.6256 37.143 37.2617 36.9615 37.9113 36.9615C38.5609 36.9615 39.1969 37.143 39.7448 37.4847C40.1582 37.757 40.6484 37.8954 41.1464 37.8803C41.1826 37.8808 41.2188 37.8789 41.2548 37.8748L41.3796 38.7855C41.2854 38.7962 41.1906 38.801 41.0957 38.7997Z" fill="white"/>
<path d="M47.4834 35.5824C46.8317 35.5955 46.1915 35.413 45.6487 35.0596C45.2448 34.8011 44.7726 34.6634 44.2901 34.6634C43.8075 34.6634 43.3354 34.8011 42.9314 35.0596C42.3837 35.401 41.7478 35.5823 41.0986 35.5823C40.4493 35.5823 39.8135 35.401 39.2657 35.0596C38.8623 34.8012 38.3907 34.6637 37.9087 34.6637C37.4267 34.6637 36.9551 34.8012 36.5517 35.0596C36.004 35.4011 35.3681 35.5825 34.7188 35.5825C34.0695 35.5825 33.4337 35.4011 32.886 35.0596C32.4826 34.8012 32.011 34.6637 31.529 34.6637C31.0469 34.6637 30.5754 34.8012 30.1719 35.0596C29.6299 35.4132 28.9903 35.5957 28.3391 35.5824C27.688 35.5957 27.0483 35.4132 26.5063 35.0596C26.1086 34.7893 25.6331 34.6506 25.1493 34.6635C24.6655 34.6507 24.1902 34.7894 23.7927 35.0596C23.2515 35.4128 22.6129 35.5953 21.9627 35.5824C21.3114 35.5957 20.6716 35.4132 20.1294 35.0596C19.7309 34.7888 19.2544 34.65 18.7695 34.6635V33.7446C19.4207 33.7314 20.0603 33.9139 20.6024 34.2675C21.0004 34.5377 21.4762 34.6764 21.9603 34.6635C22.4441 34.6764 22.9193 34.5376 23.3169 34.2675C23.858 33.9142 24.4967 33.7318 25.1469 33.7446C25.7986 33.731 26.4388 33.9135 26.9811 34.2675C27.379 34.5378 27.8546 34.6765 28.3386 34.6635C28.8227 34.6765 29.2983 34.5378 29.6961 34.2675C30.2438 33.9259 30.8797 33.7445 31.529 33.7445C32.1783 33.7445 32.8141 33.9259 33.3618 34.2675C33.7653 34.5258 34.237 34.6634 34.7191 34.6634C35.2012 34.6634 35.6728 34.5258 36.0763 34.2675C36.624 33.9259 37.2598 33.7445 37.9092 33.7445C38.5585 33.7445 39.1943 33.9259 39.742 34.2675C40.1455 34.5258 40.6172 34.6634 41.0993 34.6634C41.5814 34.6634 42.053 34.5258 42.4565 34.2675C43.0048 33.926 43.641 33.7447 44.2908 33.7447C44.9405 33.7447 45.5768 33.926 46.125 34.2675C46.5292 34.5258 47.0015 34.6633 47.4841 34.6633C47.9668 34.6633 48.4391 34.5258 48.8433 34.2675C49.3859 33.9141 50.026 33.7317 50.6775 33.7446V34.6635C50.1924 34.6501 49.7156 34.7889 49.3167 35.0596C48.7744 35.4127 48.1347 35.5952 47.4834 35.5824Z" fill="white"/>
<path d="M40.7969 35.1931L39.9114 34.8889C40.1395 34.2474 40.2327 33.5673 40.1853 32.8896C40.138 32.2119 39.9511 31.5506 39.636 30.9454L36.4128 24.7652C36.381 24.7042 36.3635 24.637 36.3617 24.5685C36.3598 24.5 36.3736 24.4319 36.4021 24.3693C36.4306 24.3067 36.473 24.2512 36.5262 24.2067C36.5795 24.1622 36.6422 24.13 36.7098 24.1123L43.1332 22.4353C43.3425 22.3817 43.5218 22.2493 43.6319 22.067C43.7421 21.8846 43.7742 21.6671 43.7214 21.4617C43.6686 21.2562 43.5351 21.0795 43.3498 20.97C43.1646 20.8605 42.9428 20.827 42.7325 20.8768L34.9582 22.6963C34.792 22.7347 34.6371 22.8101 34.5054 22.9166C34.3738 23.0231 34.2689 23.1579 34.199 23.3104C34.1291 23.463 34.096 23.6293 34.1022 23.7964C34.1085 23.9635 34.154 24.1269 34.2351 24.2741L36.5437 28.4735C36.6023 28.5802 36.6154 28.7053 36.5803 28.8215C36.5451 28.9376 36.4645 29.0355 36.356 29.0938L33.3764 30.7019L32.9236 29.8969L35.4959 28.5084L33.4097 24.7096C33.2605 24.4384 33.1769 24.1373 33.1655 23.8294C33.1542 23.5216 33.2152 23.2153 33.344 22.9342C33.4729 22.6532 33.666 22.4049 33.9084 22.2086C34.1509 22.0123 34.4362 21.8732 34.7423 21.8022L42.5129 19.9832C42.9652 19.8712 43.4445 19.9399 43.8452 20.1739C44.2459 20.408 44.5352 20.7883 44.6495 21.2313C44.7638 21.6742 44.6938 22.1435 44.4547 22.5359C44.2157 22.9282 43.8272 23.2115 43.3749 23.3234L37.5122 24.8534L40.4722 30.5268C40.8449 31.243 41.0658 32.0256 41.1216 32.8275C41.1774 33.6294 41.0669 34.4341 40.7969 35.1931Z" fill="white"/>
<path d="M31.2835 30.7896L25.5813 33.8662L26.034 34.6706L31.7362 31.594L31.2835 30.7896Z" fill="white"/>
<path d="M45.0466 32.137C44.3506 32.137 43.6701 31.9349 43.0914 31.5563C42.5127 31.1776 42.0616 30.6394 41.7952 30.0098C41.5289 29.3801 41.4592 28.6872 41.595 28.0188C41.7308 27.3503 42.0659 26.7363 42.5581 26.2544C43.0503 25.7725 43.6774 25.4443 44.36 25.3113C45.0427 25.1784 45.7503 25.2466 46.3934 25.5074C47.0364 25.7682 47.5861 26.2099 47.9728 26.7766C48.3595 27.3433 48.5659 28.0095 48.5659 28.6911C48.5649 29.6047 48.1938 30.4806 47.534 31.1266C46.8742 31.7727 45.9797 32.136 45.0466 32.137ZM45.0466 26.164C44.5362 26.164 44.0372 26.3122 43.6128 26.5899C43.1884 26.8676 42.8576 27.2623 42.6623 27.724C42.4669 28.1858 42.4158 28.6939 42.5154 29.1841C42.615 29.6743 42.8608 30.1245 43.2217 30.4779C43.5826 30.8313 44.0425 31.072 44.5431 31.1695C45.0437 31.267 45.5627 31.217 46.0342 31.0257C46.5058 30.8345 46.9089 30.5106 47.1925 30.095C47.476 29.6794 47.6274 29.1909 47.6274 28.6911C47.6265 28.0211 47.3543 27.3789 46.8705 26.9051C46.3867 26.4314 45.7308 26.1649 45.0466 26.164Z" fill="white"/>
</svg>
