<svg width="45" height="45" viewBox="0 0 45 45" fill="none" xmlns="http://www.w3.org/2000/svg">
<path d="M43.3929 19.9036C43.8191 19.9036 44.2279 19.76 44.5293 19.5044C44.8307 19.2488 45 18.9022 45 18.5407V11.7259C45 11.003 44.6614 10.3096 44.0586 9.7984C43.4558 9.28719 42.6382 9 41.7857 9H3.21429C2.3618 9 1.54424 9.28719 0.941442 9.7984C0.338647 10.3096 0 11.003 0 11.7259V18.5407C0 18.9022 0.169323 19.2488 0.470721 19.5044C0.772119 19.76 1.1809 19.9036 1.60714 19.9036C2.45962 19.9036 3.27719 20.1908 3.87999 20.702C4.48278 21.2132 4.82143 21.9066 4.82143 22.6295C4.82143 23.3525 4.48278 24.0458 3.87999 24.557C3.27719 25.0682 2.45962 25.3554 1.60714 25.3554C1.1809 25.3554 0.772119 25.499 0.470721 25.7546C0.169323 26.0102 0 26.3569 0 26.7184V33.5332C0 34.2561 0.338647 34.9495 0.941442 35.4607C1.54424 35.9719 2.3618 36.2591 3.21429 36.2591H41.7857C42.6382 36.2591 43.4558 35.9719 44.0586 35.4607C44.6614 34.9495 45 34.2561 45 33.5332V26.7184C45 26.3569 44.8307 26.0102 44.5293 25.7546C44.2279 25.499 43.8191 25.3554 43.3929 25.3554C42.5404 25.3554 41.7228 25.0682 41.12 24.557C40.5172 24.0458 40.1786 23.3525 40.1786 22.6295C40.1786 21.9066 40.5172 21.2132 41.12 20.702C41.7228 20.1908 42.5404 19.9036 43.3929 19.9036ZM41.7857 27.9042V33.5332H30.5357V29.4443H27.3214V33.5332H3.21429V27.9042C4.58999 27.5992 5.80767 26.9161 6.67675 25.9617C7.54583 25.0073 8.01726 23.8354 8.01726 22.6295C8.01726 21.4237 7.54583 20.2518 6.67675 19.2974C5.80767 18.343 4.58999 17.6598 3.21429 17.3549V11.7259H27.3214V15.8148H30.5357V11.7259H41.7857V17.3549C40.41 17.6598 39.1923 18.343 38.3232 19.2974C37.4542 20.2518 36.9827 21.4237 36.9827 22.6295C36.9827 23.8354 37.4542 25.0073 38.3232 25.9617C39.1923 26.9161 40.41 27.5992 41.7857 27.9042Z" fill="#32DF8F"/>
<path d="M27.3696 18.0863H30.3044V27.1727H27.3696V18.0863Z" fill="#32DF8F"/>
</svg>
