<svg width="68" height="68" viewBox="0 0 68 68" fill="none" xmlns="http://www.w3.org/2000/svg">
<rect width="68" height="68" rx="10" fill="#5E6282"/>
<g clip-path="url(#clip0_233_617)">
<path d="M46 26.557C45.117 26.949 44.168 27.213 43.172 27.332C44.189 26.723 44.97 25.758 45.337 24.608C44.386 25.172 43.332 25.582 42.21 25.803C41.313 24.846 40.032 24.248 38.616 24.248C35.437 24.248 33.101 27.214 33.819 30.293C29.728 30.088 26.1 28.128 23.671 25.149C22.381 27.362 23.002 30.257 25.194 31.723C24.388 31.697 23.628 31.476 22.965 31.107C22.911 33.388 24.546 35.522 26.914 35.997C26.221 36.185 25.462 36.229 24.69 36.081C25.316 38.037 27.134 39.46 29.29 39.5C27.22 41.123 24.612 41.848 22 41.54C24.179 42.937 26.768 43.752 29.548 43.752C38.69 43.752 43.855 36.031 43.543 29.106C44.505 28.411 45.34 27.544 46 26.557Z" fill="white"/>
</g>
<defs>
<clipPath id="clip0_233_617">
<rect width="24" height="24" fill="white" transform="translate(22 22)"/>
</clipPath>
</defs>
</svg>
